#!OML:ASF E:\Steps\Project 1\Capture day 1\Session 2\Subject.ASF
:FULLY-SPECIFIED
:DEGREES
486
root 9.09936 16.3784 2.59999 -150.027 1.76661 178.85
lowerback -25.0576 -2.4681 -4.42928
upperback -3.9198 -1.13293 -0.137436
thorax 9.70643 -0.298619 2.08526
lowerneck -8.69277 -1.50821 0.987895
upperneck 13.1041 -1.82437 -1.03003
head 5.35602 -0.824653 -0.604719
rclavicle -8.59744e-015 3.97569e-016
rhumerus -40.0093 -21.9727 -72.5592
rradius 21.1232
rwrist 10.4639
rhand -8.1824 -55.2509
rfingers 7.12502
rthumb 17.7333 -804.462
lclavicle -8.59744e-015 3.97569e-016
lhumerus -36.8272 -3.19446 83.2476
lradius 21.3819
lwrist -6.85577
lhand -20.9888 -10.1811
lfingers 7.12502
lthumb 5.38519 19.7305
rfemur -27.1671 9.25307 14.801
rtibia 4.96549
rfoot -16.1144 -10.1931
rtoes -26.0609
lfemur -27.2948 -6.22369 -19.6039
ltibia 6.33155
lfoot -6.87886 5.96345
ltoes -28.8547
487
root 9.09403 16.3766 2.60044 -150.174 1.74863 178.977
lowerback -24.8967 -2.36799 -4.35635
upperback -3.85725 -1.04854 -0.137671
thorax 9.68492 -0.265694 2.07073
lowerneck -8.64518 -1.54735 0.887342
upperneck 13.0944 -1.8764 -0.923971
head 5.34651 -0.847124 -0.558346
rclavicle -1.59525e-014 -3.18055e-015
rhumerus -40.1523 -23.3929 -71.6319
rradius 20.535
rwrist 11.5737
rhand -8.3895 -55.1329
rfingers 7.12502
rthumb 17.534 -804.362
lclavicle -1.59525e-014 -3.18055e-015
lhumerus -36.6392 -2.21445 82.6378
lradius 20.8242
lwrist -7.52027
lhand -21.8925 -11.0125
lfingers 7.12502
lthumb 4.51261 18.9195
rfemur -27.1186 9.32831 14.9596
rtibia 5.22106
rfoot -16.2484 -10.1487
rtoes -25.7349
lfemur -27.0972 -6.15947 -19.5049
ltibia 6.29714
lfoot -6.89738 5.91913
ltoes -28.9402
488
root 9.08761 16.3794 2.59898 -150.16 1.7427 179.187
lowerback -24.9324 -2.27091 -4.18367
upperback -3.82988 -0.976652 -0.0923589
thorax 9.72674 -0.230923 2.04503
lowerneck -8.66986 -1.58089 0.825541
upperneck 13.0969 -1.92701 -0.83203
head 5.35267 -0.868826 -0.523409
rclavicle -1.16289e-014 -1.11319e-014
rhumerus -40.3861 -25.0279 -70.486
rradius 19.8822
rwrist 13.1093
rhand -8.7183 -54.8606
rfingers 7.12502
rthumb 17.2176 -804.118
lclavicle -1.16289e-014 -1.11319e-014
lhumerus -36.3087 -0.933364 81.9203
lradius 20.047
lwrist -8.34712
lhand -22.6454 -11.1568
lfingers 7.12502
lthumb 3.78554 18.7893
rfemur -27.2576 9.14439 15.262
rtibia 5.52159
rfoot -16.4173 -9.82483
rtoes -25.457
lfemur -27.0762 -6.00614 -19.32
ltibia 6.2463
lfoot -6.8552 5.84322
ltoes -29.3053
489
root 9.08073 16.3861 2.5982 -150.151 1.73938 179.338
lowerback -25.0102 -2.25775 -4.09325
upperback -3.78559 -0.995577 -0.0105215
thorax 9.81807 -0.243917 2.07702
lowerneck -8.7151 -1.58632 0.786816
upperneck 13.0852 -1.93989 -0.773816
head 5.35768 -0.874066 -0.500262
rclavicle -6.95746e-016 3.97569e-015
rhumerus -40.5597 -26.9885 -69.0674
rradius 19.0027
rwrist 15.0919
rhand -9.12984 -54.77
rfingers 7.12502
rthumb 16.8215 -804.061
lclavicle -6.95746e-016 3.97569e-015
lhumerus -35.9211 0.510106 81.2053
lradius 19.1908
lwrist -8.86689
lhand -23.1221 -11.1038
lfingers 7.12502
lthumb 3.3252 18.8501
rfemur -27.3558 8.95075 15.4827
rtibia 5.72451
rfoot -16.5177 -9.56497
rtoes -25.3636
lfemur -27.1042 -5.9168 -19.1698
ltibia 6.29889
lfoot -6.88187 5.78018
ltoes -28.9542
490
root 9.07507 16.395 2.5983 -150.127 1.71773 179.438
lowerback -25.1257 -2.30078 -4.08932
upperback -3.78433 -1.05336 0.0720858
thorax 9.88535 -0.272413 2.14729
lowerneck -8.6561 -1.57091 0.763249
upperneck 13.0489 -1.9213 -0.730988
head 5.33721 -0.863277 -0.480998
rclavicle 5.46658e-015 -2.38542e-015
rhumerus -40.924 -29.3267 -67.2431
rradius 17.91
rwrist 17.5743
rhand -9.67448 -54.3707
rfingers 7.12502
rthumb 16.2971 -803.706
lclavicle 5.46658e-015 -2.38542e-015
lhumerus -35.6645 2.26446 80.2804
lradius 18.3163
lwrist -9.67048
lhand -23.5676 -11.498
lfingers 7.12502
lthumb 2.89491 18.4621
rfemur -27.4924 8.90553 15.5852
rtibia 5.92705
rfoot -16.6321 -9.47479
rtoes -25.5109
lfemur -27.2525 -5.87734 -19.0413
ltibia 6.57201
lfoot -7.07439 5.64535
ltoes -28.0364
